<?xml version="1.0" standalone="no"?>
<!DOCTYPE svg PUBLIC "-//W3C//DTD SVG 20010904//EN"
 "http://www.w3.org/TR/2001/REC-SVG-20010904/DTD/svg10.dtd">
<svg version="1.0" xmlns="http://www.w3.org/2000/svg"
 width="244.000000pt" height="171.000000pt" viewBox="0 0 244.000000 171.000000"
 preserveAspectRatio="xMidYMid meet">

<g transform="translate(0.000000,171.000000) scale(0.100000,-0.100000)"
fill="#000000" stroke="none">
<path d="M1496 1686 c-131 -49 -190 -189 -130 -310 9 -17 63 -79 121 -137 72
-73 104 -112 101 -125 -8 -43 -19 -44 -734 -44 -749 0 -720 2 -780 -62 -48
-50 -64 -90 -64 -158 0 -100 58 -181 149 -209 27 -8 238 -11 719 -11 605 0
682 -2 696 -16 9 -8 16 -20 16 -26 0 -6 -47 -59 -104 -118 -125 -129 -140
-154 -141 -240 0 -54 5 -73 28 -113 41 -69 94 -101 178 -105 54 -3 77 0 111
17 29 14 155 133 395 373 295 297 353 359 362 393 15 54 14 79 -4 123 -20 46
-692 724 -748 753 -51 27 -122 33 -171 15z"/>
</g>
</svg>
